<svg width="2357" height="545" viewBox="0 0 2357 545" fill="none" xmlns="http://www.w3.org/2000/svg">
<g clip-path="url(#clip0_451_25405)">
<path d="M295.91 218.116C304.097 205.398 312.285 192.679 320.472 179.96C344.449 142.974 368.426 105.988 392.11 68.8552C402.637 52.3356 400.005 30.407 386.847 16.0803C364.917 -7.74884 327.489 -4.67883 309.068 22.6589C302.197 32.8922 296.056 43.7104 289.331 54.0899C243.424 125.431 197.371 196.626 151.317 267.821C112.867 327.175 74.2696 386.528 35.8188 446.028C24.7076 463.132 13.3039 480.09 3.50847 497.926C-4.67878 512.545 1.75406 530.088 16.0817 538.713C24.7076 543.976 34.2106 544.853 44.0061 544.853C85.6733 544.707 127.341 544.122 169.008 544.122C189.914 544.122 210.967 543.245 231.874 544.707C253.366 546.169 270.033 538.567 279.828 518.246C282.606 512.399 286.992 507.136 290.501 501.581C332.46 436.526 374.566 371.617 416.526 306.562C437.579 273.961 458.631 241.214 479.977 208.76C499.714 178.791 478.222 145.167 452.783 139.027C432.608 134.203 412.578 140.196 400.882 157.447C385.093 180.691 370.18 204.52 354.975 228.057C321.057 280.54 286.992 333.022 253.073 385.505C241.377 403.486 229.827 421.76 217.985 439.596C209.213 452.753 192.546 456.554 180.265 448.806C166.376 439.888 163.014 424.684 171.932 409.919C173.686 407.141 175.587 404.364 177.341 401.586C216.669 340.77 256.143 279.955 296.056 217.97L295.91 218.116ZM571.352 299.983C562.142 285.51 553.077 271.184 543.72 256.857C532.317 239.314 526.322 239.46 514.919 257.295C496.059 286.68 477.199 316.21 458.193 345.595C430.853 387.99 403.514 430.239 376.174 472.635C371.496 479.944 368.864 487.985 368.426 496.756C367.695 517.369 381.438 535.935 402.344 542.514C421.058 548.362 444.742 539.883 455.708 523.509C473.544 497.049 489.187 468.98 508.194 443.396C515.211 434.04 527.053 430.386 537.58 434.186C550.007 438.718 557.902 449.829 557.025 461.817C556.44 468.98 552.492 474.681 548.691 480.383C538.165 496.464 527.492 512.545 517.112 528.772C510.971 538.421 513.164 542.66 524.276 544.122C533.486 545.438 542.405 543.976 551.469 543.976C593.429 544.268 635.242 544.561 677.202 544.707C698.693 544.707 716.091 522.34 701.325 500.557C679.541 468.395 659.073 435.356 638.02 402.755C615.944 368.693 593.867 334.777 571.206 299.837L571.352 299.983Z" fill="url(#paint0_linear_451_25405)"/>
</g>
<path d="M1210.78 106.008V433.892H1144.94V406.494C1127.86 427.116 1103.11 437.427 1070.7 437.427C1048.31 437.427 1027.99 432.419 1009.72 422.402C991.753 412.386 977.612 398.098 967.301 379.539C956.991 360.979 951.835 339.474 951.835 315.023C951.835 290.571 956.991 269.066 967.301 250.506C977.612 231.947 991.753 217.659 1009.72 207.643C1027.99 197.627 1048.31 192.619 1070.7 192.619C1101.05 192.619 1124.76 202.193 1141.85 221.342V106.008H1210.78ZM1082.64 380.865C1100.02 380.865 1114.45 374.973 1125.94 363.189C1137.43 351.111 1143.17 335.055 1143.17 315.023C1143.17 294.99 1137.43 279.082 1125.94 267.298C1114.45 255.22 1100.02 249.181 1082.64 249.181C1064.96 249.181 1050.38 255.22 1038.89 267.298C1027.4 279.082 1021.65 294.99 1021.65 315.023C1021.65 335.055 1027.4 351.111 1038.89 363.189C1050.38 374.973 1064.96 380.865 1082.64 380.865ZM1351.03 182.013V263.763H1494.21V321.209H1351.03V433.892H1279.45V124.567H1513.21V182.013H1351.03ZM1556.81 106.008H1625.74V433.892H1556.81V106.008ZM1802.85 437.427C1777.81 437.427 1755.27 432.271 1735.24 421.961C1715.5 411.355 1700.03 396.773 1688.84 378.213C1677.64 359.654 1672.05 338.59 1672.05 315.023C1672.05 291.455 1677.64 270.392 1688.84 251.832C1700.03 233.273 1715.5 218.838 1735.24 208.527C1755.27 197.921 1777.81 192.619 1802.85 192.619C1827.89 192.619 1850.28 197.921 1870.01 208.527C1889.75 218.838 1905.22 233.273 1916.41 251.832C1927.61 270.392 1933.2 291.455 1933.2 315.023C1933.2 338.59 1927.61 359.654 1916.41 378.213C1905.22 396.773 1889.75 411.355 1870.01 421.961C1850.28 432.271 1827.89 437.427 1802.85 437.427ZM1802.85 380.865C1820.52 380.865 1834.96 374.973 1846.15 363.189C1857.64 351.111 1863.39 335.055 1863.39 315.023C1863.39 294.99 1857.64 279.082 1846.15 267.298C1834.96 255.22 1820.52 249.181 1802.85 249.181C1785.17 249.181 1770.59 255.22 1759.1 267.298C1747.61 279.082 1741.87 294.99 1741.87 315.023C1741.87 335.055 1747.61 351.111 1759.1 363.189C1770.59 374.973 1785.17 380.865 1802.85 380.865ZM2354.6 196.154L2268.43 433.892H2202.15L2148.68 286.3L2093.45 433.892H2027.16L1941.43 196.154H2006.39L2062.51 357.002L2120.84 196.154H2179.17L2235.73 357.002L2293.62 196.154H2354.6Z" fill="white"/>
<defs>
<linearGradient id="paint0_linear_451_25405" x1="473.836" y1="298.96" x2="8.20786" y2="630.112" gradientUnits="userSpaceOnUse">
<stop stop-color="#7155E2"/>
<stop offset="1" stop-color="#D3C8FF"/>
</linearGradient>
<clipPath id="clip0_451_25405">
<rect width="707.027" height="545" fill="white"/>
</clipPath>
</defs>
</svg>
